<svg width="560" height="561" viewBox="0 0 560 561" fill="none" xmlns="http://www.w3.org/2000/svg">
<path d="M380.945 109.168C380.155 109.563 378.772 111.341 378.97 113.119C378.97 114.502 380.155 115.489 381.34 116.477C382.723 117.86 384.105 118.65 384.303 118.65C387.266 120.23 394.377 127.341 399.118 135.638C403.463 143.144 407.019 149.465 405.241 156.378C403.858 162.107 399.513 165.465 395.365 168.823C390.426 172.773 386.278 174.354 377.389 177.712C360.204 184.428 362.969 184.033 355.661 186.6C346.969 189.761 337.29 192.329 318.92 195.489C304.5 198.057 270.328 203.786 233.587 203.588C222.328 203.588 210.673 202.798 205.932 202.6C204.352 202.6 195.266 202.008 183.611 200.625C169.587 199.045 162.081 197.662 155.76 192.921C152.204 190.354 150.426 187.786 149.636 186.6C148.846 185.218 146.278 181.07 146.081 175.341C146.081 171.588 146.673 168.823 148.451 163.687C149.636 160.329 151.216 155.588 153.982 150.255C159.71 139.588 165.834 131.489 170.772 125.958C176.105 119.835 186.574 108.181 204.155 99.2918C209.686 96.5264 213.834 94.9462 220.155 92.7733C225.883 90.798 242.476 85.2671 260.846 84.477C267.167 84.082 274.081 84.477 274.476 84.477C274.476 84.477 279.809 84.477 285.537 85.2671C317.537 88.4276 338.278 94.9462 338.278 94.9462C338.278 94.9462 354.081 99.8844 371.068 109.366C374.031 110.946 376.402 112.329 378.97 114.897C379.365 115.292 380.747 117.07 381.142 116.872C381.537 116.675 380.155 114.502 380.747 113.712C381.142 113.317 381.537 113.712 382.525 113.317C383.315 113.317 384.698 112.724 384.895 111.934C385.093 110.946 382.92 109.563 382.328 109.366C355.858 94.156 344.007 90.798 344.007 90.798C327.809 86.0573 315.167 82.3042 298.574 81.5141C293.241 81.3165 287.908 81.5141 276.056 80.5264C265.784 79.9338 262.821 79.3412 256.895 79.5387C248.204 79.9338 241.686 81.3165 235.365 82.6992C217.192 86.6499 204.55 92.5758 200.797 94.5511C192.698 98.5017 187.76 101.86 186.377 102.847C184.599 104.033 178.673 108.378 171.562 115.884C168.402 119.242 160.303 128.131 153.192 141.366C142.13 161.514 138.969 180.279 136.797 192.921C133.636 212.675 130.476 233.218 136.797 258.897C136.797 259.292 136.994 259.884 137.192 260.477C140.55 273.909 148.056 302.354 163.858 308.872C166.031 309.86 170.377 311.045 172.155 314.798C173.34 317.168 172.55 318.551 173.34 322.304C173.735 324.279 174.723 328.625 177.883 331.588C182.426 335.934 190.723 337.119 195.068 333.959C196.451 332.971 197.636 331.588 200.994 329.02C201.784 328.428 202.97 327.637 204.747 326.847C204.747 326.847 206.13 326.255 207.71 326.057C211.463 325.465 215.019 326.847 215.611 327.045C221.537 329.218 235.957 329.613 253.735 330.008C259.858 330.008 268.352 330.008 278.624 329.613C275.858 353.119 281.192 371.687 290.278 374.65C291.661 375.045 295.809 376.23 300.747 375.045C301.142 375.045 308.649 373.267 312.599 367.539C317.537 360.428 316.155 348.773 308.253 339.687C306.871 336.724 306.081 334.354 305.686 332.378C305.093 329.81 305.29 329.02 305.686 328.428C306.476 327.44 308.056 327.44 310.821 327.44C312.797 327.44 315.365 327.44 318.92 326.847C327.019 326.255 335.118 325.86 343.216 325.267C362.969 323.094 433.29 314.403 435.661 291.884C436.056 287.934 434.476 282.798 427.76 276.279C428.945 271.736 428.155 266.996 427.76 262.452C427.76 261.07 426.179 259.687 426.179 258.699C426.179 257.316 428.155 255.539 427.957 252.971C427.957 250.996 425.192 249.81 426.179 247.638C434.673 247.638 435.858 235.391 427.167 234.205C427.167 232.23 429.34 232.033 430.13 230.255C432.698 224.526 427.562 223.341 427.76 222.354C428.155 218.996 434.871 215.835 434.278 208.329C434.081 205.168 432.105 205.366 431.71 203.983C431.118 202.008 432.5 199.638 432.5 197.662C432.5 195.884 429.735 193.712 429.932 192.724C429.932 192.329 431.908 191.341 432.303 190.156C434.871 183.638 430.328 177.317 424.599 174.354C429.932 168.23 428.55 163.292 420.253 161.909C419.858 161.514 426.772 158.946 424.402 153.81C421.044 149.465 416.105 151.045 411.562 152.428L409.389 143.539C389.241 113.514 382.723 107.983 380.55 108.971L380.945 109.168ZM152.402 197.662C156.55 199.44 160.698 201.81 165.241 202.798C214.426 213.86 278.426 210.502 327.809 200.625C350.328 196.082 368.698 189.168 389.044 179.292C396.747 175.539 406.624 173.563 411.365 164.675C414.13 159.736 409.587 151.638 421.241 155.588C420.253 158.749 414.92 159.144 417.29 163.489L425.982 167.045C428.155 172.378 401.29 171.786 401.29 179.292C401.29 185.81 421.834 182.057 409.982 190.946C404.056 195.292 394.97 193.514 391.019 200.428L389.241 199.44C390.624 195.687 394.969 188.773 389.241 186.6C380.155 183.045 377.784 193.514 372.846 195.094C368.895 196.279 364.945 193.119 361.982 194.107C360.599 194.502 358.031 199.638 355.463 201.415C354.278 202.205 342.821 205.761 342.229 205.563C340.649 204.971 339.068 202.008 336.698 201.415C328.204 199.242 331.365 208.724 326.821 209.909C325.044 210.304 322.871 209.514 320.895 209.909C318.525 210.304 316.55 213.07 314.179 212.872C310.426 212.279 310.624 205.563 302.92 206.946C299.562 207.539 299.167 213.86 294.821 214.452C290.081 209.712 284.945 208.921 278.624 211.687C268.747 215.835 278.624 220.378 279.019 221.563C281.389 228.477 263.019 236.773 258.081 224.724C256.5 220.971 258.871 216.23 251.957 216.23C239.315 216.033 247.019 233.613 235.167 230.847C236.155 224.131 234.377 218.205 226.673 217.81C218.969 217.415 211.661 219.983 209.883 220.773C202.969 223.539 202.772 235.983 192.303 233.218C181.834 230.452 199.414 219.983 196.056 215.835C193.29 210.897 185.784 210.502 184.402 216.23C183.611 219.391 185.784 228.082 179.463 224.526C180.451 220.971 183.019 214.057 177.488 213.267C171.957 212.477 169.192 226.502 163.463 223.341C159.513 221.168 168.797 213.07 163.266 209.909C155.957 205.761 152.797 216.428 145.488 212.872C147.068 205.959 154.772 206.354 152.204 197.86L152.402 197.662ZM405.241 179.094C404.649 178.107 417.093 174.946 418.081 175.144C419.858 175.539 429.34 186.008 428.945 188.378C427.76 190.749 415.513 191.341 414.92 190.749C421.044 181.662 411.957 180.872 405.241 179.094ZM363.167 198.452C364.747 197.662 372.451 203.193 378.574 196.675C379.957 195.292 381.34 191.341 382.525 190.946C387.266 189.168 387.266 193.119 383.908 195.884C382.723 196.872 380.55 196.872 379.365 197.86C374.821 201.218 367.315 215.638 365.932 221.366C364.55 226.699 367.118 234.403 361.192 236.971C358.426 238.156 350.723 238.946 350.13 234.996C353.488 235.983 358.821 236.773 359.216 231.835C346.772 234.798 340.056 218.6 328.204 217.218L330.179 220.576L348.155 234.403C335.908 229.86 327.809 216.823 313.389 217.81C315.365 216.823 320.105 213.465 321.883 213.07C328.007 211.687 331.76 215.242 333.142 204.773C336.698 204.181 337.488 208.329 339.068 209.119C340.253 209.712 355.266 206.749 356.846 205.761C360.204 203.786 362.377 198.65 362.772 198.452H363.167ZM406.031 206.354C407.216 204.378 418.871 201.415 419.463 202.205C420.846 203.983 417.686 204.181 417.093 204.378C413.932 205.563 409.389 206.946 406.031 206.354ZM396.945 217.613C392.797 216.428 387.463 218.6 383.118 219.391C381.537 219.588 381.34 221.563 380.155 218.6C386.081 215.835 392.402 212.675 398.92 214.255L396.945 217.81V217.613ZM396.155 230.255C396.155 230.255 397.537 231.242 398.723 231.045C407.611 230.057 415.513 228.872 424.007 225.317L425.784 228.279C424.994 230.057 409.389 235.588 406.229 237.761C394.969 245.465 388.846 261.07 390.624 274.107C391.019 285.958 392.007 292.082 392.797 295.637C392.797 295.637 393.587 298.996 393.587 303.539C393.587 305.317 393.587 308.872 392.204 309.07C391.019 309.267 389.241 305.712 388.846 304.724C387.068 300.181 384.895 293.465 383.315 284.971C381.34 274.304 382.13 270.749 379.957 265.81C377.587 260.279 371.463 253.761 355.858 249.415C359.611 248.23 362.772 247.835 366.525 246.255C369.488 244.872 374.624 240.526 376.994 239.934C381.735 238.946 385.883 240.526 391.216 236.971C394.377 234.798 394.969 231.242 396.155 230.452V230.255ZM303.513 211.489C307.661 211.489 308.253 215.44 310.229 218.205L301.142 217.02L303.513 211.489ZM279.216 217.218C282.377 214.452 287.315 213.662 289.488 218.008C285.142 220.576 282.969 220.181 279.216 217.218ZM275.463 237.168L296.797 231.242C302.13 231.045 307.463 228.477 312.599 230.255L294.624 234.6L275.463 237.168ZM244.451 231.835C247.611 225.712 244.451 216.033 254.723 219.588L253.735 226.699L244.649 231.835H244.451ZM278.031 244.082L315.957 238.354L312.797 240.724C302.525 240.921 291.068 245.267 280.994 245.267C280.007 245.267 277.439 245.86 278.031 244.082ZM145.883 198.255C153.192 202.6 144.895 204.971 142.92 207.934C140.747 211.489 142.13 219.786 145.883 222.156V223.736L140.155 228.082C138.772 217.613 139.957 207.144 145.686 198.057L145.883 198.255ZM398.328 261.07C400.5 261.465 401.29 263.44 403.266 264.23C408.204 266.205 415.513 264.625 415.71 271.341C403.068 276.675 393.784 279.242 398.328 261.07ZM155.562 263.045C158.723 263.44 162.081 261.465 165.044 261.267C170.574 261.267 175.908 261.86 181.044 262.255C187.562 263.045 191.513 260.477 193.29 260.477C195.068 260.477 199.019 264.428 201.587 265.218C206.13 266.6 216.402 265.81 221.34 264.625C223.908 264.033 229.834 260.872 230.821 260.872C232.994 260.872 236.945 264.23 240.105 265.02C246.821 266.6 260.846 266.798 267.167 263.44C269.735 262.057 272.303 257.514 274.476 257.514C276.056 257.514 278.426 259.489 280.994 259.884C291.858 261.465 305.686 251.983 313.784 251.391C317.735 251.193 322.278 253.168 327.216 252.773C335.71 252.181 341.636 245.267 349.735 249.02C345.389 251.391 338.871 250.996 334.525 252.971C328.007 256.131 314.377 268.181 310.031 273.909C297.784 289.909 290.081 312.823 297.784 332.181C301.34 341.07 314.574 356.082 305.686 365.168C304.895 365.959 298.969 368.921 297.784 368.921C283.562 368.921 282.377 351.934 283.365 341.07C284.352 327.835 290.476 321.317 286.92 306.699C281.192 282.996 253.735 269.366 231.216 267.786C221.34 266.996 216.797 273.317 209.093 274.502C201.389 275.687 204.945 273.712 202.377 274.502C193.883 276.872 192.105 288.329 192.698 295.835C193.29 305.119 205.932 328.823 186.574 327.835C168.994 327.045 182.031 304.921 183.216 295.637C184.797 283.391 182.031 266.008 168.204 262.255C166.624 266.996 173.537 269.563 172.55 274.699C164.253 275.489 155.76 271.539 155.562 262.452V263.045ZM210.081 224.131C211.858 222.749 225.883 222.156 228.056 222.946C232.007 224.724 231.019 229.07 230.624 232.823C227.068 232.428 222.92 233.415 219.365 234.6C212.649 236.773 201.389 243.094 196.253 247.835C191.71 251.983 190.13 259.687 182.821 257.712C173.932 255.144 177.29 246.255 176.105 240.131C174.328 231.242 165.439 229.465 157.34 230.057C152.402 230.452 148.846 233.81 144.105 232.428C146.673 228.477 151.216 228.675 151.414 223.341C151.414 221.761 150.031 219.983 150.426 218.996C150.821 218.008 159.118 212.082 159.71 212.279L161.883 214.452C149.636 232.625 172.155 232.428 175.118 216.033L178.081 216.625C178.673 217.415 170.772 232.428 182.821 227.687C191.315 224.131 182.426 216.625 189.932 214.452C199.809 217.415 188.55 224.329 186.377 228.082C180.253 239.539 200.402 240.724 206.327 231.835C207.908 229.662 207.908 226.304 209.883 224.724L210.081 224.131ZM330.179 266.798L361.587 261.662C361.587 263.637 360.204 263.835 358.624 264.23C350.723 266.6 339.266 266.205 331.167 268.971L330.179 266.798ZM344.007 274.304C352.303 273.514 360.599 269.958 368.895 270.749C368.895 273.514 367.908 272.329 366.328 272.724C360.797 273.909 350.328 276.279 344.994 276.477C343.019 276.477 343.611 275.687 344.007 274.304ZM225.686 249.415L261.044 245.267C261.044 248.033 260.056 246.847 258.476 247.242C248.007 249.613 237.142 249.613 226.476 251.588L225.488 249.415H225.686ZM351.71 282.6C353.093 282.205 355.858 283.588 357.834 283.786C365.34 284.181 371.661 284.378 377.784 279.242L378.179 283.391C378.179 285.958 378.179 289.712 378.377 294.255C378.772 298.996 379.167 299.983 378.377 301.563C377.192 303.934 374.426 305.514 364.945 307.292C359.216 308.279 357.439 308.279 350.13 309.07C333.932 310.847 325.241 312.033 322.278 312.625C320.698 313.02 319.908 311.835 319.71 314.6C329.192 317.761 339.266 314.008 348.747 313.02C362.969 309.465 368.303 308.675 370.476 308.675C372.056 308.675 373.834 309.267 376.402 308.279C377.389 307.884 378.377 307.292 378.97 307.884C379.76 308.477 378.969 309.86 379.76 311.242C380.55 313.02 382.13 313.02 382.328 313.613C382.525 316.576 348.747 320.329 348.747 320.329C337.686 321.514 328.994 322.304 324.451 322.502C315.365 323.094 307.858 323.489 302.525 323.884C299.76 316.773 303.315 298.403 308.253 293.465C311.216 290.502 315.76 293.07 319.513 292.675C322.476 292.279 327.019 288.724 328.797 288.526C331.957 288.526 334.328 290.107 338.673 289.514C344.204 288.724 349.735 282.996 351.71 282.403V282.6ZM151.414 245.465C156.747 245.465 161.883 242.304 167.414 244.082C167.414 246.847 166.426 245.662 164.846 246.057C160.698 247.045 156.352 247.045 152.204 247.638L151.414 245.465ZM210.081 284.378L252.945 279.835C252.945 282.6 252.155 281.415 250.377 281.81C241.093 283.588 222.13 286.551 213.044 285.761C211.858 285.761 209.29 285.959 210.081 284.181V284.378ZM161.488 282.205C160.698 282.798 152.007 272.724 151.019 271.341C150.031 269.959 143.71 260.477 144.895 259.489L151.414 262.65C152.007 271.539 155.167 275.094 162.673 279.44L161.488 282.403V282.205ZM201.784 302.156C208.698 305.712 213.044 306.502 220.352 304.329C222.13 303.736 223.908 301.761 225.488 301.761C230.426 301.366 237.932 307.094 245.241 303.736C247.216 302.749 248.599 299.588 250.969 299.391C253.34 299.193 257.686 301.168 260.648 301.563C267.365 302.354 271.513 301.168 277.834 299.391C281.192 306.897 283.957 315.391 281.192 323.687C255.71 325.07 229.439 325.86 204.55 319.736L201.784 302.354V302.156ZM174.525 307.292C166.031 302.354 169.389 292.082 175.71 286.749C178.673 293.465 176.105 300.576 174.525 307.292Z" fill="#241F18"/>
<path d="M351.908 131.884C345.784 130.107 340.451 140.576 345.192 143.341C349.735 145.909 354.673 138.008 354.475 134.255C353.883 133.267 352.895 132.279 351.908 132.082V131.884Z" fill="#241F18"/>
<path d="M328.204 126.749C323.068 122.798 314.969 128.921 316.945 135.045C323.858 139.588 327.414 133.267 328.204 126.749Z" fill="#241F18"/>
<path d="M184.994 175.934C181.834 178.897 187.76 186.6 190.328 188.181C195.858 191.341 195.463 178.502 189.34 176.131C188.55 175.736 185.389 175.736 184.994 176.131V175.934Z" fill="#241F18"/>
<path d="M325.636 154.996C324.451 151.637 320.698 147.884 318.327 152.23C318.327 155.193 320.895 164.477 324.253 164.675C327.809 164.675 326.426 157.168 325.636 154.996Z" fill="#241F18"/>
<path d="M204.155 128.329C198.821 123.786 188.155 137.02 193.883 139.391C197.044 140.773 204.747 128.921 204.155 128.329Z" fill="#241F18"/>
<path d="M381.34 147.292C376.994 152.625 385.883 162.502 389.833 157.563C393.784 152.625 384.698 147.687 381.34 147.292Z" fill="#241F18"/>
<path d="M173.537 152.428C164.253 147.292 158.13 164.477 174.327 158.749C176.105 156.971 175.71 153.613 173.537 152.428Z" fill="#241F18"/>
<path d="M351.908 110.354C349.537 108.971 345.982 108.773 343.414 109.761C336.105 114.107 354.08 119.835 353.883 113.514C353.685 112.329 353.093 111.144 351.908 110.551V110.354Z" fill="#241F18"/>
<path d="M349.537 169.218C356.846 176.526 364.945 158.354 357.043 158.156C352.895 158.354 347.364 165.662 349.537 169.218ZM358.426 161.119C359.019 163.884 354.87 170.403 351.908 169.02C348.352 167.44 355.266 160.131 358.426 161.119Z" fill="#241F18"/>
<path d="M203.957 154.995C199.809 153.613 192.105 161.316 194.87 164.675C198.623 169.02 213.833 158.354 203.957 154.995ZM203.364 157.761C207.315 162.107 193.685 166.452 196.451 160.329L203.364 157.761Z" fill="#241F18"/>
<path d="M385.686 138.008C387.266 133.86 385.686 129.514 381.142 128.526C373.044 126.749 379.562 138.995 385.686 138.008Z" fill="#241F18"/>
<path d="M264.401 93.1683L259.858 90.4029C247.414 98.3041 258.08 103.835 264.401 93.1683Z" fill="#241F18"/>
<path d="M160.303 181.662C157.735 185.415 157.538 189.168 162.278 190.551C162.278 189.168 163.266 180.477 160.303 181.662Z" fill="#241F18"/>
<path d="M298.772 105.81C299.76 108.181 310.229 107.786 310.821 103.44C309.044 103.835 297.389 102.452 298.772 105.81Z" fill="#241F18"/>
<path d="M221.735 108.971C226.081 110.156 234.179 112.329 236.747 107.391C232.006 108.181 225.685 106.403 221.735 108.971Z" fill="#241F18"/>
<path d="M289.686 346.995C286.13 348.971 286.525 353.514 287.908 356.477C291.858 365.168 301.735 360.823 299.957 356.477C293.834 353.712 292.056 353.514 289.686 346.798V346.995Z" fill="#241F18"/>
<path d="M185.784 309.86C180.451 307.292 180.253 326.847 190.13 319.736C186.574 318.354 186.574 310.255 185.784 309.86Z" fill="#241F18"/>
<path d="M266.574 270.551C266.574 273.317 278.821 282.403 279.611 282.008C279.216 275.489 272.698 271.144 266.574 270.551Z" fill="#241F18"/>
<path d="M179.463 237.366C178.673 237.761 179.068 254.946 182.031 252.576C182.426 250.403 184.204 234.6 179.463 237.366Z" fill="#241F18"/>
<path d="M229.636 166.255C234.574 164.082 238.327 160.921 244.056 161.712C245.438 161.712 248.204 164.082 249.192 162.502C250.969 159.539 245.636 158.551 245.438 158.156C244.451 156.773 246.229 149.86 246.821 148.082C247.809 145.316 250.772 141.761 250.969 139.193C251.759 132.477 247.414 129.514 241.29 132.674C233.587 136.625 230.821 152.032 233.982 159.539C232.204 161.514 228.846 163.094 229.438 166.255H229.636ZM242.871 139.786C242.278 146.107 236.747 139.983 240.5 138.798C241.685 138.403 242.08 139.391 242.871 139.786C242.871 138.403 242.08 136.428 243.858 135.637C248.796 132.872 250.969 141.366 245.043 140.773C244.056 140.773 243.661 139.983 243.068 139.786H242.871Z" fill="#241F18"/>
<path d="M268.945 159.144C274.871 159.144 278.821 153.02 284.747 157.168C286.13 158.156 288.895 162.897 290.475 160.329C292.056 157.761 286.327 153.415 284.154 152.428C285.142 145.119 289.488 138.008 288.895 130.699C287.908 127.736 282.969 127.341 280.599 128.526C274.278 131.292 272.105 143.144 271.315 149.267C271.117 151.242 271.71 153.218 270.92 155.391C270.327 157.168 268.945 157.563 268.945 159.144ZM282.574 131.292C286.327 127.539 290.673 136.625 284.55 136.625C281.587 136.625 280.796 133.07 282.574 131.292ZM280.796 135.045C281.982 135.44 282.377 138.798 280.401 138.995C277.438 138.995 278.031 134.452 280.796 135.045Z" fill="#241F18"/>
<path d="M282.772 167.44C282.179 170.403 284.352 171.786 285.735 173.958C275.463 185.81 256.895 189.958 244.451 179.094C245.241 177.514 248.006 171.983 245.438 170.995C242.871 170.008 243.463 174.156 242.673 175.341C240.698 178.699 238.13 178.107 235.167 179.292C232.204 180.477 235.364 182.057 237.537 181.86C238.92 181.86 240.895 180.279 241.883 180.477C242.871 180.674 245.241 184.033 246.426 184.823C258.278 193.119 275.661 187.983 285.34 178.699C286.327 177.712 288.105 174.946 288.303 174.749C289.29 173.958 294.031 176.329 295.216 173.761C296.204 171.193 291.266 171.786 289.883 171.391C287.117 170.6 285.34 167.835 282.772 167.242V167.44Z" fill="#241F18"/>
<path d="M276.056 121.02C274.673 122.6 273.488 125.168 272.895 127.144C274.08 127.934 280.994 120.823 283.167 120.23C288.5 118.452 295.414 121.613 296.401 127.539C296.599 129.316 295.611 131.489 296.599 132.477C300.154 134.65 300.154 129.909 299.759 127.144C298.377 115.884 283.759 112.329 276.253 121.02H276.056Z" fill="#241F18"/>
<path d="M256.895 132.477L258.278 127.736C256.105 117.662 243.661 115.489 237.142 122.995C236.352 123.786 232.401 130.304 235.167 130.304C237.932 130.304 239.71 121.218 247.414 122.008C255.117 122.798 256.105 127.341 256.698 132.477H256.895Z" fill="#241F18"/>
<path d="M264.796 170.403C264.796 170.403 265.587 169.02 265.389 168.823C262.031 168.033 257.685 169.218 255.315 166.255C255.315 162.502 263.414 163.687 261.438 160.724C259.463 157.761 250.377 161.909 252.155 168.033C253.34 172.181 262.031 173.168 264.796 170.403Z" fill="#241F18"/>
<path d="M43.1666 170.205C44.9444 165.86 51.0679 164.279 51.858 163.094C53.6358 160.724 50.2778 154.008 55.216 151.835C44.7469 145.514 45.537 118.65 61.537 126.946C65.6852 129.119 77.3395 140.971 80.8951 144.921C83.6605 147.884 85.0432 151.637 88.2037 154.205C90.3766 154.6 89.5864 153.218 89.5864 151.835C89.9815 145.119 88.4012 140.773 93.537 135.045C101.241 126.551 111.71 133.267 112.302 143.934C112.698 154.008 104.994 159.736 106.574 171.193C106.772 173.168 108.944 179.687 110.13 181.07C111.315 182.452 113.883 181.86 115.463 184.823C120.006 193.119 113.093 203.391 112.302 211.884C111.117 224.724 119.216 235.786 132.451 236.378C136.204 236.378 139.364 236.378 142.327 235.588C143.71 241.712 145.685 247.835 148.056 253.563C144.5 254.354 139.562 255.934 137.981 256.131C117.636 258.502 98.4753 246.255 93.7346 225.909C92.9444 222.946 92.7469 214.847 91.5617 213.465C83.858 208.921 74.5741 211.292 66.2778 208.329C54.0309 203.786 37.4382 183.637 43.1666 170.008V170.205ZM111.117 186.6L105.191 194.897C104.401 196.082 102.031 195.884 101.438 196.477C100.648 197.267 100.846 200.823 99.6605 202.008L92.3518 209.909C105.389 214.847 114.278 197.07 110.92 186.403L111.117 186.6ZM50.4753 186.008C57.784 199.045 70.821 206.354 86.0309 204.181C89.1914 203.786 98.0803 198.452 100.056 196.082C100.846 195.292 106.179 186.008 106.377 185.02C106.772 181.465 100.648 172.181 100.846 165.662C101.043 160.329 105.389 154.403 106.179 149.662C109.142 133.07 95.3148 131.687 94.5247 147.884C94.5247 151.44 97.4876 161.712 90.3765 160.921C83.2654 160.131 80.3025 152.428 76.3519 148.279C73.5864 145.316 58.3765 130.107 55.8086 130.699C52.2531 134.847 53.2407 139.786 56.2037 143.934C64.1049 154.995 88.4012 152.428 86.6235 173.366C86.0309 179.489 83.6605 179.884 81.2901 183.835C80.3025 185.613 79.9074 191.539 76.3519 191.539C72.7963 191.539 63.1173 192.329 60.5494 191.539C60.1543 191.539 58.179 189.366 58.179 188.971C57.1913 182.847 73.7839 189.958 75.5617 184.23C73.5864 177.316 70.6234 174.156 64.1049 171.391C49.8827 165.662 42.7716 172.181 50.4753 186.008ZM71.216 169.218L80.6975 176.921C85.2407 164.279 68.4506 153.415 57.5864 157.168C54.2284 166.452 65.8827 164.674 71.216 169.218Z" fill="#241F18"/>
<path d="M428.747 192.526C432.303 194.699 453.043 198.847 455.414 196.675L465.093 170.996C462.327 169.02 458.969 167.045 456.994 164.279C454.426 160.724 452.253 157.761 449.685 154.205C444.549 147.292 443.364 138.008 438.426 131.094C436.056 127.539 431.512 124.971 429.537 121.613C426.574 116.675 426.377 109.563 428.747 104.428C435.266 90.9955 448.105 110.749 453.438 116.082C455.809 112.526 462.525 113.712 463.71 113.316C464.895 112.724 465.685 109.366 467.463 107.983C474.377 102.847 485.636 110.354 488.204 117.465C492.55 112.329 494.327 107.588 501.636 105.81C511.512 103.242 522.179 113.316 516.451 122.996C513.29 128.526 506.377 129.316 502.426 133.662C499.068 137.415 502.426 144.526 500.451 148.872C498.87 152.033 494.92 153.81 493.932 155.786C492.747 157.761 493.735 163.292 490.377 167.045C488.204 169.613 483.661 169.218 483.068 170.008C480.105 174.156 481.093 187.983 479.908 193.514C476.352 211.489 465.685 220.576 446.92 218.008C440.994 217.218 435.068 214.057 428.747 214.847C429.34 207.341 429.537 200.033 428.747 192.724C428.747 192.724 428.747 192.724 428.945 192.724L428.747 192.526ZM467.463 136.033C460.549 131.489 463.117 122.6 461.142 115.687C446.327 119.242 454.426 141.366 467.463 136.033ZM456.796 153.81C458.772 154.6 469.438 153.81 468.451 157.168L461.142 160.329C464.105 166.452 465.685 164.279 469.636 165.07C476.945 166.452 488.599 167.637 487.611 156.773C484.056 155.983 479.315 156.971 477.537 153.02C484.056 151.44 491.759 153.218 496.5 146.897C497.883 145.119 495.315 136.23 497.883 132.082C501.833 125.958 516.648 122.205 511.71 114.107C504.599 102.255 491.957 118.057 487.414 124.378C483.858 123.983 487.216 121.415 485.438 118.057C484.056 115.292 478.327 110.354 475.364 109.761C461.537 107.193 463.117 136.428 474.179 134.057C481.29 132.477 479.315 127.539 479.315 122.403C479.315 120.823 477.932 120.428 480.5 119.44C485.833 125.563 483.661 138.403 474.377 138.798C472.599 138.798 470.229 137.415 469.043 137.81C466.278 138.798 466.08 142.551 460.352 141.563C450.87 139.983 447.908 124.378 451.463 116.675C445.34 114.897 442.179 107.391 436.846 104.428C435.858 103.835 436.056 103.242 434.673 104.23C425.389 115.292 437.438 120.823 442.772 128.526C447.315 135.045 450.08 150.65 456.994 153.81H456.796Z" fill="#241F18"/>
<path d="M329.982 476.378C353.883 459.588 377.389 414.749 363.759 386.699C357.043 373.07 348.945 377.218 339.661 372.872C335.117 370.699 331.957 362.996 325.438 360.823C324.253 360.428 320.105 359.242 315.562 360.428C310.229 362.008 310.031 365.366 305.093 367.934C300.154 370.502 292.648 370.897 288.105 367.539C282.969 363.786 285.735 358.65 279.611 351.934C275.068 346.996 271.117 347.193 270.722 344.23C270.327 337.909 284.945 334.354 284.154 330.601C283.364 325.86 257.883 322.502 237.34 332.971C236.154 333.563 231.611 335.934 226.673 339.884C223.71 342.255 215.809 348.773 207.315 363.588C197.636 379.983 197.438 388.872 192.303 389.267C189.34 389.465 187.957 386.502 180.056 378.205C171.957 369.514 164.451 361.613 153.587 356.675C146.278 353.317 140.747 352.921 138.574 352.921C133.043 352.921 128.698 353.909 126.13 354.699C123.759 355.292 118.031 357.86 112.303 361.218C103.019 366.946 99.068 379.983 98.673 389.267C98.0804 401.909 104.204 410.996 109.34 418.699C116.451 429.366 125.142 435.884 130.475 439.44C132.451 440.625 135.414 442.403 139.167 443.983C141.932 445.168 142.525 445.168 144.105 446.156C147.266 448.131 147.661 450.304 150.821 455.045C154.969 461.168 156.154 460.181 159.315 465.514C161.093 468.675 161.29 470.057 163.463 472.428C166.031 475.193 168.006 476.971 168.599 477.366C168.599 477.366 171.759 479.539 175.512 480.526C184.006 482.699 195.266 477.366 202.179 470.057C204.154 467.884 208.105 463.934 209.883 457.218C210.673 454.452 211.858 449.909 210.278 444.773C209.093 440.625 207.117 440.033 207.117 437.07C207.117 432.922 210.87 432.724 212.648 427.786C214.229 423.243 211.858 421.86 211.858 410.403C211.858 407.44 211.858 406.057 212.253 404.477C213.043 399.934 215.216 396.378 220.154 390.452C224.303 385.514 225.685 384.329 231.019 378.403C240.698 367.736 242.08 364.773 246.031 364.576C247.809 364.576 248.796 364.971 256.698 369.909C271.117 378.996 270.525 378.798 271.908 379.391C281.982 383.934 287.71 381.959 289.883 386.502C291.661 389.86 288.895 391.638 290.08 396.576C292.056 404.082 299.759 405.267 299.562 409.218C299.364 412.773 293.241 412.971 284.945 418.699C282.179 420.477 273.093 426.996 268.945 438.452C267.759 441.613 264.994 448.922 267.759 457.415C269.735 463.736 273.883 467.687 276.451 470.255C276.451 470.255 281.982 475.588 289.685 478.551C307.068 485.465 326.624 477.168 329.784 475.786L329.982 476.378ZM275.266 333.563C246.821 347.983 226.673 373.662 208.698 399.144C186.772 400.329 204.352 378.008 211.068 367.934C221.932 351.341 229.438 341.662 243.068 335.341C247.019 333.563 254.525 332.576 269.537 330.403C270.92 330.403 273.883 329.81 275.068 331.391C275.463 331.983 275.463 332.971 275.463 333.366L275.266 333.563ZM251.562 362.205C256.698 352.724 261.438 351.539 263.611 351.341C268.747 350.946 273.488 354.897 280.796 361.415C287.71 367.341 292.253 373.267 296.006 371.884C297.389 371.292 297.389 370.304 298.772 370.107C303.315 369.317 310.821 379.786 308.451 383.539C306.87 385.909 301.735 385.317 298.377 384.724C293.438 384.131 289.883 382.354 286.327 380.576C273.685 374.452 268.549 371.489 268.549 371.489C260.253 366.946 254.13 363.588 251.364 362.008L251.562 362.205ZM106.574 374.057C122.772 348.378 159.71 358.255 173.735 381.959C181.043 394.205 182.031 410.403 187.759 422.65C193.488 434.897 209.29 442.996 201.784 459.786C195.463 449.712 184.204 446.156 176.895 438.255C164.846 425.218 164.648 408.23 156.154 394.798C145.685 378.403 126.13 366.551 106.574 374.255V374.057ZM294.229 393.02C303.71 394.205 314.969 390.65 315.562 379.786C315.957 374.452 307.858 366.156 314.574 364.576C335.315 359.44 344.204 396.773 318.13 403.884C292.056 410.996 294.426 406.452 294.229 393.218V393.02ZM106.969 379.391C113.685 373.465 129.883 377.613 137.191 381.168L132.451 388.28C142.327 382.946 150.821 392.033 154.574 400.922C155.759 403.884 153.784 407.44 154.179 408.23C156.945 414.156 168.006 423.835 163.858 433.119C171.364 437.662 206.327 462.946 192.105 472.823C186.179 475.786 169.587 473.613 166.229 468.675C165.833 468.082 168.204 465.317 167.809 464.724C165.636 461.761 150.426 454.65 149.241 446.354L156.352 438.057C152.006 440.428 148.451 441.218 145.093 441.02C140.747 440.823 136.994 438.452 132.451 435.687C130.87 434.699 129.685 433.909 128.698 433.317C129.093 430.946 129.685 428.576 130.08 426.205C122.969 428.971 121.389 426.798 117.043 421.465C109.932 413.168 96.6977 388.082 106.969 379.193V379.391ZM303.908 416.922C303.512 407.243 314.377 410.798 320.698 408.625C338.08 402.502 336.105 393.02 343.216 378.798C364.154 385.909 361.982 410.008 356.451 427.588C347.957 454.65 319.117 485.465 288.895 468.675C259.463 452.477 284.352 416.526 311.216 419.094L304.105 416.724L303.908 416.922ZM187.364 397.761C201.587 403.094 217.784 420.675 202.772 433.317C191.117 424.625 186.969 412.181 187.364 397.761Z" fill="#241F18"/>
</svg>
